<svg width="299" height="51" viewBox="0 0 299 51" fill="none" xmlns="http://www.w3.org/2000/svg">
<path opacity="0.8" d="M60.74 15.8C61.5533 15.9733 62.2067 16.38 62.7 17.02C63.1933 17.6467 63.44 18.3667 63.44 19.18C63.44 20.3533 63.0267 21.2867 62.2 21.98C61.3867 22.66 60.2467 23 58.78 23H52.24V8.96H58.56C59.9867 8.96 61.1 9.28667 61.9 9.94C62.7133 10.5933 63.12 11.48 63.12 12.6C63.12 13.4267 62.9 14.1133 62.46 14.66C62.0333 15.2067 61.46 15.5867 60.74 15.8ZM55.66 14.64H57.9C58.46 14.64 58.8867 14.52 59.18 14.28C59.4867 14.0267 59.64 13.66 59.64 13.18C59.64 12.7 59.4867 12.3333 59.18 12.08C58.8867 11.8267 58.46 11.7 57.9 11.7H55.66V14.64ZM58.18 20.24C58.7533 20.24 59.1933 20.1133 59.5 19.86C59.82 19.5933 59.98 19.2133 59.98 18.72C59.98 18.2267 59.8133 17.84 59.48 17.56C59.16 17.28 58.7133 17.14 58.14 17.14H55.66V20.24H58.18ZM64.7436 17.4C64.7436 16.2533 64.9569 15.2467 65.3836 14.38C65.8236 13.5133 66.4169 12.8467 67.1636 12.38C67.9103 11.9133 68.7436 11.68 69.6636 11.68C70.4503 11.68 71.1369 11.84 71.7236 12.16C72.3236 12.48 72.7836 12.9 73.1036 13.42V11.84H76.5236V23H73.1036V21.42C72.7703 21.94 72.3036 22.36 71.7036 22.68C71.1169 23 70.4303 23.16 69.6436 23.16C68.7369 23.16 67.9103 22.9267 67.1636 22.46C66.4169 21.98 65.8236 21.3067 65.3836 20.44C64.9569 19.56 64.7436 18.5467 64.7436 17.4ZM73.1036 17.42C73.1036 16.5667 72.8636 15.8933 72.3836 15.4C71.9169 14.9067 71.3436 14.66 70.6636 14.66C69.9836 14.66 69.4036 14.9067 68.9236 15.4C68.4569 15.88 68.2236 16.5467 68.2236 17.4C68.2236 18.2533 68.4569 18.9333 68.9236 19.44C69.4036 19.9333 69.9836 20.18 70.6636 20.18C71.3436 20.18 71.9169 19.9333 72.3836 19.44C72.8636 18.9467 73.1036 18.2733 73.1036 17.42ZM82.4178 13.7C82.8178 13.0867 83.3178 12.6067 83.9178 12.26C84.5178 11.9 85.1845 11.72 85.9178 11.72V15.34H84.9778C84.1245 15.34 83.4845 15.5267 83.0578 15.9C82.6311 16.26 82.4178 16.9 82.4178 17.82V23H78.9978V11.84H82.4178V13.7ZM92.6325 23.16C91.5392 23.16 90.5525 22.9267 89.6725 22.46C88.8058 21.9933 88.1192 21.3267 87.6125 20.46C87.1192 19.5933 86.8725 18.58 86.8725 17.42C86.8725 16.2733 87.1258 15.2667 87.6325 14.4C88.1392 13.52 88.8325 12.8467 89.7125 12.38C90.5925 11.9133 91.5792 11.68 92.6725 11.68C93.7658 11.68 94.7525 11.9133 95.6325 12.38C96.5125 12.8467 97.2058 13.52 97.7125 14.4C98.2192 15.2667 98.4725 16.2733 98.4725 17.42C98.4725 18.5667 98.2125 19.58 97.6925 20.46C97.1858 21.3267 96.4858 21.9933 95.5925 22.46C94.7125 22.9267 93.7258 23.16 92.6325 23.16ZM92.6325 20.2C93.2858 20.2 93.8392 19.96 94.2925 19.48C94.7592 19 94.9925 18.3133 94.9925 17.42C94.9925 16.5267 94.7658 15.84 94.3125 15.36C93.8725 14.88 93.3258 14.64 92.6725 14.64C92.0058 14.64 91.4525 14.88 91.0125 15.36C90.5725 15.8267 90.3525 16.5133 90.3525 17.42C90.3525 18.3133 90.5658 19 90.9925 19.48C91.4325 19.96 91.9792 20.2 92.6325 20.2ZM107.107 23L103.707 18.32V23H100.287V8.2H103.707V16.38L107.087 11.84H111.307L106.667 17.44L111.347 23H107.107ZM111.97 17.4C111.97 16.2533 112.183 15.2467 112.61 14.38C113.05 13.5133 113.643 12.8467 114.39 12.38C115.137 11.9133 115.97 11.68 116.89 11.68C117.677 11.68 118.363 11.84 118.95 12.16C119.55 12.48 120.01 12.9 120.33 13.42V11.84H123.75V23H120.33V21.42C119.997 21.94 119.53 22.36 118.93 22.68C118.343 23 117.657 23.16 116.87 23.16C115.963 23.16 115.137 22.9267 114.39 22.46C113.643 21.98 113.05 21.3067 112.61 20.44C112.183 19.56 111.97 18.5467 111.97 17.4ZM120.33 17.42C120.33 16.5667 120.09 15.8933 119.61 15.4C119.143 14.9067 118.57 14.66 117.89 14.66C117.21 14.66 116.63 14.9067 116.15 15.4C115.683 15.88 115.45 16.5467 115.45 17.4C115.45 18.2533 115.683 18.9333 116.15 19.44C116.63 19.9333 117.21 20.18 117.89 20.18C118.57 20.18 119.143 19.9333 119.61 19.44C120.09 18.9467 120.33 18.2733 120.33 17.42ZM133.084 11.72C134.364 11.72 135.391 12.1467 136.164 13C136.938 13.84 137.324 15 137.324 16.48V23H133.924V16.94C133.924 16.1933 133.731 15.6133 133.344 15.2C132.958 14.7867 132.438 14.58 131.784 14.58C131.131 14.58 130.611 14.7867 130.224 15.2C129.838 15.6133 129.644 16.1933 129.644 16.94V23H126.224V8.2H129.644V13.34C129.991 12.8467 130.464 12.4533 131.064 12.16C131.664 11.8667 132.338 11.72 133.084 11.72ZM153.259 13.4C153.006 12.9333 152.639 12.58 152.159 12.34C151.693 12.0867 151.139 11.96 150.499 11.96C149.393 11.96 148.506 12.3267 147.839 13.06C147.173 13.78 146.839 14.7467 146.839 15.96C146.839 17.2533 147.186 18.2667 147.879 19C148.586 19.72 149.553 20.08 150.779 20.08C151.619 20.08 152.326 19.8667 152.899 19.44C153.486 19.0133 153.913 18.4 154.179 17.6H149.839V15.08H157.279V18.26C157.026 19.1133 156.593 19.9067 155.979 20.64C155.379 21.3733 154.613 21.9667 153.679 22.42C152.746 22.8733 151.693 23.1 150.519 23.1C149.133 23.1 147.893 22.8 146.799 22.2C145.719 21.5867 144.873 20.74 144.259 19.66C143.659 18.58 143.359 17.3467 143.359 15.96C143.359 14.5733 143.659 13.34 144.259 12.26C144.873 11.1667 145.719 10.32 146.799 9.72C147.879 9.10667 149.113 8.8 150.499 8.8C152.179 8.8 153.593 9.20667 154.739 10.02C155.899 10.8333 156.666 11.96 157.039 13.4H153.259ZM164.254 23.16C163.16 23.16 162.174 22.9267 161.294 22.46C160.427 21.9933 159.74 21.3267 159.234 20.46C158.74 19.5933 158.494 18.58 158.494 17.42C158.494 16.2733 158.747 15.2667 159.254 14.4C159.76 13.52 160.454 12.8467 161.334 12.38C162.214 11.9133 163.2 11.68 164.294 11.68C165.387 11.68 166.374 11.9133 167.254 12.38C168.134 12.8467 168.827 13.52 169.334 14.4C169.84 15.2667 170.094 16.2733 170.094 17.42C170.094 18.5667 169.834 19.58 169.314 20.46C168.807 21.3267 168.107 21.9933 167.214 22.46C166.334 22.9267 165.347 23.16 164.254 23.16ZM164.254 20.2C164.907 20.2 165.46 19.96 165.914 19.48C166.38 19 166.614 18.3133 166.614 17.42C166.614 16.5267 166.387 15.84 165.934 15.36C165.494 14.88 164.947 14.64 164.294 14.64C163.627 14.64 163.074 14.88 162.634 15.36C162.194 15.8267 161.974 16.5133 161.974 17.42C161.974 18.3133 162.187 19 162.614 19.48C163.054 19.96 163.6 20.2 164.254 20.2ZM175.328 13.7C175.728 13.0867 176.228 12.6067 176.828 12.26C177.428 11.9 178.095 11.72 178.828 11.72V15.34H177.888C177.035 15.34 176.395 15.5267 175.968 15.9C175.541 16.26 175.328 16.9 175.328 17.82V23H171.908V11.84H175.328V13.7ZM179.783 17.4C179.783 16.2533 179.996 15.2467 180.423 14.38C180.863 13.5133 181.456 12.8467 182.203 12.38C182.949 11.9133 183.783 11.68 184.703 11.68C185.436 11.68 186.103 11.8333 186.703 12.14C187.316 12.4467 187.796 12.86 188.143 13.38V8.2H191.563V23H188.143V21.4C187.823 21.9333 187.363 22.36 186.763 22.68C186.176 23 185.489 23.16 184.703 23.16C183.783 23.16 182.949 22.9267 182.203 22.46C181.456 21.98 180.863 21.3067 180.423 20.44C179.996 19.56 179.783 18.5467 179.783 17.4ZM188.143 17.42C188.143 16.5667 187.903 15.8933 187.423 15.4C186.956 14.9067 186.383 14.66 185.703 14.66C185.023 14.66 184.443 14.9067 183.963 15.4C183.496 15.88 183.263 16.5467 183.263 17.4C183.263 18.2533 183.496 18.9333 183.963 19.44C184.443 19.9333 185.023 20.18 185.703 20.18C186.383 20.18 186.956 19.9333 187.423 19.44C187.903 18.9467 188.143 18.2733 188.143 17.42ZM204.557 17.24C204.557 17.56 204.537 17.8933 204.497 18.24H196.757C196.81 18.9333 197.03 19.4667 197.417 19.84C197.817 20.2 198.304 20.38 198.877 20.38C199.73 20.38 200.324 20.02 200.657 19.3H204.297C204.11 20.0333 203.77 20.6933 203.277 21.28C202.797 21.8667 202.19 22.3267 201.457 22.66C200.724 22.9933 199.904 23.16 198.997 23.16C197.904 23.16 196.93 22.9267 196.077 22.46C195.224 21.9933 194.557 21.3267 194.077 20.46C193.597 19.5933 193.357 18.58 193.357 17.42C193.357 16.26 193.59 15.2467 194.057 14.38C194.537 13.5133 195.204 12.8467 196.057 12.38C196.91 11.9133 197.89 11.68 198.997 11.68C200.077 11.68 201.037 11.9067 201.877 12.36C202.717 12.8133 203.37 13.46 203.837 14.3C204.317 15.14 204.557 16.12 204.557 17.24ZM201.057 16.34C201.057 15.7533 200.857 15.2867 200.457 14.94C200.057 14.5933 199.557 14.42 198.957 14.42C198.384 14.42 197.897 14.5867 197.497 14.92C197.11 15.2533 196.87 15.7267 196.777 16.34H201.057ZM213.161 11.72C214.468 11.72 215.508 12.1467 216.281 13C217.068 13.84 217.461 15 217.461 16.48V23H214.061V16.94C214.061 16.1933 213.868 15.6133 213.481 15.2C213.094 14.7867 212.574 14.58 211.921 14.58C211.268 14.58 210.748 14.7867 210.361 15.2C209.974 15.6133 209.781 16.1933 209.781 16.94V23H206.361V11.84H209.781V13.32C210.128 12.8267 210.594 12.44 211.181 12.16C211.768 11.8667 212.428 11.72 213.161 11.72ZM234.176 8.96V11.7H230.456V23H227.036V11.7H223.316V8.96H234.176ZM235.212 17.4C235.212 16.2533 235.426 15.2467 235.852 14.38C236.292 13.5133 236.886 12.8467 237.632 12.38C238.379 11.9133 239.212 11.68 240.132 11.68C240.919 11.68 241.606 11.84 242.192 12.16C242.792 12.48 243.252 12.9 243.572 13.42V11.84H246.992V23H243.572V21.42C243.239 21.94 242.772 22.36 242.172 22.68C241.586 23 240.899 23.16 240.112 23.16C239.206 23.16 238.379 22.9267 237.632 22.46C236.886 21.98 236.292 21.3067 235.852 20.44C235.426 19.56 235.212 18.5467 235.212 17.4ZM243.572 17.42C243.572 16.5667 243.332 15.8933 242.852 15.4C242.386 14.9067 241.812 14.66 241.132 14.66C240.452 14.66 239.872 14.9067 239.392 15.4C238.926 15.88 238.692 16.5467 238.692 17.4C238.692 18.2533 238.926 18.9333 239.392 19.44C239.872 19.9333 240.452 20.18 241.132 20.18C241.812 20.18 242.386 19.9333 242.852 19.44C243.332 18.9467 243.572 18.2733 243.572 17.42ZM252.887 13.7C253.287 13.0867 253.787 12.6067 254.387 12.26C254.987 11.9 255.653 11.72 256.387 11.72V15.34H255.447C254.593 15.34 253.953 15.5267 253.527 15.9C253.1 16.26 252.887 16.9 252.887 17.82V23H249.467V11.84H252.887V13.7ZM259.741 10.68C259.141 10.68 258.648 10.5067 258.261 10.16C257.888 9.8 257.701 9.36 257.701 8.84C257.701 8.30667 257.888 7.86667 258.261 7.52C258.648 7.16 259.141 6.98 259.741 6.98C260.328 6.98 260.808 7.16 261.181 7.52C261.568 7.86667 261.761 8.30667 261.761 8.84C261.761 9.36 261.568 9.8 261.181 10.16C260.808 10.5067 260.328 10.68 259.741 10.68ZM261.441 11.84V23H258.021V11.84H261.441ZM270.74 23L267.34 18.32V23H263.92V8.2H267.34V16.38L270.72 11.84H274.94L270.3 17.44L274.98 23H270.74Z" fill="#132440"/>
<path d="M55.224 38.16C55.1227 37.9733 54.976 37.832 54.784 37.736C54.5973 37.6347 54.376 37.584 54.12 37.584C53.6773 37.584 53.3227 37.7307 53.056 38.024C52.7893 38.312 52.656 38.6987 52.656 39.184C52.656 39.7013 52.7947 40.1067 53.072 40.4C53.3547 40.688 53.7413 40.832 54.232 40.832C54.568 40.832 54.8507 40.7467 55.08 40.576C55.3147 40.4053 55.4853 40.16 55.592 39.84H53.856V38.832H56.832V40.104C56.7307 40.4453 56.5573 40.7627 56.312 41.056C56.072 41.3493 55.7653 41.5867 55.392 41.768C55.0187 41.9493 54.5973 42.04 54.128 42.04C53.5733 42.04 53.0773 41.92 52.64 41.68C52.208 41.4347 51.8693 41.096 51.624 40.664C51.384 40.232 51.264 39.7387 51.264 39.184C51.264 38.6293 51.384 38.136 51.624 37.704C51.8693 37.2667 52.208 36.928 52.64 36.688C53.072 36.4427 53.5653 36.32 54.12 36.32C54.792 36.32 55.3573 36.4827 55.816 36.808C56.28 37.1333 56.5867 37.584 56.736 38.16H55.224ZM59.6218 42.064C59.1844 42.064 58.7898 41.9707 58.4378 41.784C58.0911 41.5973 57.8164 41.3307 57.6138 40.984C57.4164 40.6373 57.3178 40.232 57.3178 39.768C57.3178 39.3093 57.4191 38.9067 57.6217 38.56C57.8244 38.208 58.1018 37.9387 58.4538 37.752C58.8058 37.5653 59.2004 37.472 59.6378 37.472C60.0751 37.472 60.4698 37.5653 60.8218 37.752C61.1738 37.9387 61.4511 38.208 61.6538 38.56C61.8564 38.9067 61.9578 39.3093 61.9578 39.768C61.9578 40.2267 61.8538 40.632 61.6458 40.984C61.4431 41.3307 61.1631 41.5973 60.8058 41.784C60.4538 41.9707 60.0591 42.064 59.6218 42.064ZM59.6218 40.88C59.8831 40.88 60.1044 40.784 60.2858 40.592C60.4724 40.4 60.5658 40.1253 60.5658 39.768C60.5658 39.4107 60.4751 39.136 60.2938 38.944C60.1178 38.752 59.8991 38.656 59.6378 38.656C59.3711 38.656 59.1498 38.752 58.9738 38.944C58.7978 39.1307 58.7098 39.4053 58.7098 39.768C58.7098 40.1253 58.7951 40.4 58.9658 40.592C59.1418 40.784 59.3604 40.88 59.6218 40.88ZM64.0515 38.28C64.2115 38.0347 64.4115 37.8427 64.6515 37.704C64.8915 37.56 65.1582 37.488 65.4515 37.488V38.936H65.0755C64.7342 38.936 64.4782 39.0107 64.3075 39.16C64.1368 39.304 64.0515 39.56 64.0515 39.928V42H62.6835V37.536H64.0515V38.28ZM65.8334 39.76C65.8334 39.3013 65.9187 38.8987 66.0894 38.552C66.2654 38.2053 66.5027 37.9387 66.8014 37.752C67.1 37.5653 67.4334 37.472 67.8014 37.472C68.0947 37.472 68.3614 37.5333 68.6014 37.656C68.8467 37.7787 69.0387 37.944 69.1774 38.152V36.08H70.5454V42H69.1774V41.36C69.0494 41.5733 68.8654 41.744 68.6254 41.872C68.3907 42 68.116 42.064 67.8014 42.064C67.4334 42.064 67.1 41.9707 66.8014 41.784C66.5027 41.592 66.2654 41.3227 66.0894 40.976C65.9187 40.624 65.8334 40.2187 65.8334 39.76ZM69.1774 39.768C69.1774 39.4267 69.0814 39.1573 68.8894 38.96C68.7027 38.7627 68.4734 38.664 68.2014 38.664C67.9294 38.664 67.6974 38.7627 67.5054 38.96C67.3187 39.152 67.2254 39.4187 67.2254 39.76C67.2254 40.1013 67.3187 40.3733 67.5054 40.576C67.6974 40.7733 67.9294 40.872 68.2014 40.872C68.4734 40.872 68.7027 40.7733 68.8894 40.576C69.0814 40.3787 69.1774 40.1093 69.1774 39.768ZM75.7431 39.696C75.7431 39.824 75.7351 39.9573 75.7191 40.096H72.6231C72.6444 40.3733 72.7324 40.5867 72.8871 40.736C73.0471 40.88 73.2417 40.952 73.4711 40.952C73.8124 40.952 74.0497 40.808 74.1831 40.52H75.6391C75.5644 40.8133 75.4284 41.0773 75.2311 41.312C75.0391 41.5467 74.7964 41.7307 74.5031 41.864C74.2097 41.9973 73.8817 42.064 73.5191 42.064C73.0817 42.064 72.6924 41.9707 72.3511 41.784C72.0097 41.5973 71.7431 41.3307 71.5511 40.984C71.3591 40.6373 71.2631 40.232 71.2631 39.768C71.2631 39.304 71.3564 38.8987 71.5431 38.552C71.7351 38.2053 72.0017 37.9387 72.3431 37.752C72.6844 37.5653 73.0764 37.472 73.5191 37.472C73.9511 37.472 74.3351 37.5627 74.6711 37.744C75.0071 37.9253 75.2684 38.184 75.4551 38.52C75.6471 38.856 75.7431 39.248 75.7431 39.696ZM74.3431 39.336C74.3431 39.1013 74.2631 38.9147 74.1031 38.776C73.9431 38.6373 73.7431 38.568 73.5031 38.568C73.2737 38.568 73.0791 38.6347 72.9191 38.768C72.7644 38.9013 72.6684 39.0907 72.6311 39.336H74.3431ZM79.1848 37.488C79.7074 37.488 80.1234 37.6587 80.4328 38C80.7474 38.336 80.9048 38.8 80.9048 39.392V42H79.5448V39.576C79.5448 39.2773 79.4674 39.0453 79.3128 38.88C79.1581 38.7147 78.9501 38.632 78.6888 38.632C78.4274 38.632 78.2194 38.7147 78.0648 38.88C77.9101 39.0453 77.8328 39.2773 77.8328 39.576V42H76.4648V37.536H77.8328V38.128C77.9714 37.9307 78.1581 37.776 78.3928 37.664C78.6274 37.5467 78.8914 37.488 79.1848 37.488ZM84.1907 42.064C83.9507 42.064 83.7534 41.9947 83.5987 41.856C83.4494 41.712 83.3747 41.536 83.3747 41.328C83.3747 41.1147 83.4494 40.936 83.5987 40.792C83.7534 40.648 83.9507 40.576 84.1907 40.576C84.4254 40.576 84.6174 40.648 84.7667 40.792C84.9214 40.936 84.9987 41.1147 84.9987 41.328C84.9987 41.536 84.9214 41.712 84.7667 41.856C84.6174 41.9947 84.4254 42.064 84.1907 42.064ZM89.5358 42.056C89.1251 42.056 88.7571 41.9893 88.4318 41.856C88.1065 41.7227 87.8451 41.5253 87.6478 41.264C87.4558 41.0027 87.3545 40.688 87.3438 40.32H88.7998C88.8211 40.528 88.8931 40.688 89.0158 40.8C89.1385 40.9067 89.2985 40.96 89.4958 40.96C89.6985 40.96 89.8585 40.9147 89.9758 40.824C90.0931 40.728 90.1518 40.5973 90.1518 40.432C90.1518 40.2933 90.1038 40.1787 90.0078 40.088C89.9171 39.9973 89.8025 39.9227 89.6638 39.864C89.5305 39.8053 89.3385 39.7387 89.0878 39.664C88.7251 39.552 88.4291 39.44 88.1998 39.328C87.9705 39.216 87.7731 39.0507 87.6078 38.832C87.4425 38.6133 87.3598 38.328 87.3598 37.976C87.3598 37.4533 87.5491 37.0453 87.9278 36.752C88.3065 36.4533 88.7998 36.304 89.4078 36.304C90.0265 36.304 90.5251 36.4533 90.9038 36.752C91.2825 37.0453 91.4851 37.456 91.5118 37.984H90.0318C90.0211 37.8027 89.9545 37.6613 89.8318 37.56C89.7091 37.4533 89.5518 37.4 89.3598 37.4C89.1945 37.4 89.0611 37.4453 88.9598 37.536C88.8585 37.6213 88.8078 37.7467 88.8078 37.912C88.8078 38.0933 88.8931 38.2347 89.0638 38.336C89.2345 38.4373 89.5011 38.5467 89.8638 38.664C90.2265 38.7867 90.5198 38.904 90.7438 39.016C90.9731 39.128 91.1705 39.2907 91.3358 39.504C91.5011 39.7173 91.5838 39.992 91.5838 40.328C91.5838 40.648 91.5011 40.9387 91.3358 41.2C91.1758 41.4613 90.9411 41.6693 90.6318 41.824C90.3225 41.9787 89.9571 42.056 89.5358 42.056ZM96.6337 39.696C96.6337 39.824 96.6257 39.9573 96.6097 40.096H93.5137C93.535 40.3733 93.623 40.5867 93.7777 40.736C93.9377 40.88 94.1324 40.952 94.3617 40.952C94.703 40.952 94.9404 40.808 95.0737 40.52H96.5297C96.455 40.8133 96.319 41.0773 96.1217 41.312C95.9297 41.5467 95.687 41.7307 95.3937 41.864C95.1004 41.9973 94.7724 42.064 94.4097 42.064C93.9724 42.064 93.583 41.9707 93.2417 41.784C92.9004 41.5973 92.6337 41.3307 92.4417 40.984C92.2497 40.6373 92.1537 40.232 92.1537 39.768C92.1537 39.304 92.247 38.8987 92.4337 38.552C92.6257 38.2053 92.8924 37.9387 93.2337 37.752C93.575 37.5653 93.967 37.472 94.4097 37.472C94.8417 37.472 95.2257 37.5627 95.5617 37.744C95.8977 37.9253 96.159 38.184 96.3457 38.52C96.5377 38.856 96.6337 39.248 96.6337 39.696ZM95.2337 39.336C95.2337 39.1013 95.1537 38.9147 94.9937 38.776C94.8337 38.6373 94.6337 38.568 94.3937 38.568C94.1644 38.568 93.9697 38.6347 93.8097 38.768C93.655 38.9013 93.559 39.0907 93.5217 39.336H95.2337ZM98.7234 38.28C98.8834 38.0347 99.0834 37.8427 99.3234 37.704C99.5634 37.56 99.83 37.488 100.123 37.488V38.936H99.7474C99.406 38.936 99.15 39.0107 98.9794 39.16C98.8087 39.304 98.7234 39.56 98.7234 39.928V42H97.3554V37.536H98.7234V38.28ZM100.505 39.76C100.505 39.3013 100.591 38.8987 100.761 38.552C100.937 38.2053 101.175 37.9387 101.473 37.752C101.772 37.5653 102.105 37.472 102.473 37.472C102.788 37.472 103.063 37.536 103.297 37.664C103.537 37.792 103.721 37.96 103.849 38.168V37.536H105.217V42H103.849V41.368C103.716 41.576 103.529 41.744 103.289 41.872C103.055 42 102.78 42.064 102.465 42.064C102.103 42.064 101.772 41.9707 101.473 41.784C101.175 41.592 100.937 41.3227 100.761 40.976C100.591 40.624 100.505 40.2187 100.505 39.76ZM103.849 39.768C103.849 39.4267 103.753 39.1573 103.561 38.96C103.375 38.7627 103.145 38.664 102.873 38.664C102.601 38.664 102.369 38.7627 102.177 38.96C101.991 39.152 101.897 39.4187 101.897 39.76C101.897 40.1013 101.991 40.3733 102.177 40.576C102.369 40.7733 102.601 40.872 102.873 40.872C103.145 40.872 103.375 40.7733 103.561 40.576C103.753 40.3787 103.849 40.1093 103.849 39.768ZM107.903 37.472C108.218 37.472 108.492 37.536 108.727 37.664C108.967 37.792 109.151 37.96 109.279 38.168V37.536H110.647V41.992C110.647 42.4027 110.564 42.7733 110.399 43.104C110.239 43.44 109.991 43.7067 109.655 43.904C109.324 44.1013 108.911 44.2 108.415 44.2C107.754 44.2 107.218 44.0427 106.807 43.728C106.396 43.4187 106.162 42.9973 106.103 42.464H107.455C107.498 42.6347 107.599 42.768 107.759 42.864C107.919 42.9653 108.116 43.016 108.351 43.016C108.634 43.016 108.858 42.9333 109.023 42.768C109.194 42.608 109.279 42.3493 109.279 41.992V41.36C109.146 41.568 108.962 41.7387 108.727 41.872C108.492 42 108.218 42.064 107.903 42.064C107.535 42.064 107.202 41.9707 106.903 41.784C106.604 41.592 106.367 41.3227 106.191 40.976C106.02 40.624 105.935 40.2187 105.935 39.76C105.935 39.3013 106.02 38.8987 106.191 38.552C106.367 38.2053 106.604 37.9387 106.903 37.752C107.202 37.5653 107.535 37.472 107.903 37.472ZM109.279 39.768C109.279 39.4267 109.183 39.1573 108.991 38.96C108.804 38.7627 108.575 38.664 108.303 38.664C108.031 38.664 107.799 38.7627 107.607 38.96C107.42 39.152 107.327 39.4187 107.327 39.76C107.327 40.1013 107.42 40.3733 107.607 40.576C107.799 40.7733 108.031 40.872 108.303 40.872C108.575 40.872 108.804 40.7733 108.991 40.576C109.183 40.3787 109.279 40.1093 109.279 39.768ZM111.365 39.76C111.365 39.3013 111.45 38.8987 111.621 38.552C111.797 38.2053 112.034 37.9387 112.333 37.752C112.631 37.5653 112.965 37.472 113.333 37.472C113.647 37.472 113.922 37.536 114.157 37.664C114.397 37.792 114.581 37.96 114.709 38.168V37.536H116.077V42H114.709V41.368C114.575 41.576 114.389 41.744 114.149 41.872C113.914 42 113.639 42.064 113.325 42.064C112.962 42.064 112.631 41.9707 112.333 41.784C112.034 41.592 111.797 41.3227 111.621 40.976C111.45 40.624 111.365 40.2187 111.365 39.76ZM114.709 39.768C114.709 39.4267 114.613 39.1573 114.421 38.96C114.234 38.7627 114.005 38.664 113.733 38.664C113.461 38.664 113.229 38.7627 113.037 38.96C112.85 39.152 112.757 39.4187 112.757 39.76C112.757 40.1013 112.85 40.3733 113.037 40.576C113.229 40.7733 113.461 40.872 113.733 40.872C114.005 40.872 114.234 40.7733 114.421 40.576C114.613 40.3787 114.709 40.1093 114.709 39.768ZM122.762 37.488C123.317 37.488 123.757 37.656 124.082 37.992C124.413 38.328 124.578 38.7947 124.578 39.392V42H123.218V39.576C123.218 39.288 123.141 39.0667 122.986 38.912C122.837 38.752 122.629 38.672 122.362 38.672C122.096 38.672 121.885 38.752 121.73 38.912C121.581 39.0667 121.506 39.288 121.506 39.576V42H120.146V39.576C120.146 39.288 120.069 39.0667 119.914 38.912C119.765 38.752 119.557 38.672 119.29 38.672C119.024 38.672 118.813 38.752 118.658 38.912C118.509 39.0667 118.434 39.288 118.434 39.576V42H117.066V37.536H118.434V38.096C118.573 37.9093 118.754 37.7627 118.978 37.656C119.202 37.544 119.456 37.488 119.738 37.488C120.074 37.488 120.373 37.56 120.634 37.704C120.901 37.848 121.109 38.0533 121.258 38.32C121.413 38.0747 121.624 37.8747 121.89 37.72C122.157 37.5653 122.448 37.488 122.762 37.488ZM127.87 42.064C127.63 42.064 127.433 41.9947 127.278 41.856C127.129 41.712 127.054 41.536 127.054 41.328C127.054 41.1147 127.129 40.936 127.278 40.792C127.433 40.648 127.63 40.576 127.87 40.576C128.105 40.576 128.297 40.648 128.446 40.792C128.601 40.936 128.678 41.1147 128.678 41.328C128.678 41.536 128.601 41.712 128.446 41.856C128.297 41.9947 128.105 42.064 127.87 42.064ZM133.288 36.384C133.88 36.384 134.397 36.5013 134.84 36.736C135.282 36.9707 135.624 37.3013 135.864 37.728C136.109 38.1493 136.232 38.6373 136.232 39.192C136.232 39.7413 136.109 40.2293 135.864 40.656C135.624 41.0827 135.28 41.4133 134.832 41.648C134.389 41.8827 133.874 42 133.288 42H131.184V36.384H133.288ZM133.2 40.816C133.717 40.816 134.12 40.6747 134.408 40.392C134.696 40.1093 134.84 39.7093 134.84 39.192C134.84 38.6747 134.696 38.272 134.408 37.984C134.12 37.696 133.717 37.552 133.2 37.552H132.552V40.816H133.2ZM141.204 39.696C141.204 39.824 141.196 39.9573 141.18 40.096H138.084C138.105 40.3733 138.193 40.5867 138.348 40.736C138.508 40.88 138.703 40.952 138.932 40.952C139.273 40.952 139.511 40.808 139.644 40.52H141.1C141.025 40.8133 140.889 41.0773 140.692 41.312C140.5 41.5467 140.257 41.7307 139.964 41.864C139.671 41.9973 139.343 42.064 138.98 42.064C138.543 42.064 138.153 41.9707 137.812 41.784C137.471 41.5973 137.204 41.3307 137.012 40.984C136.82 40.6373 136.724 40.232 136.724 39.768C136.724 39.304 136.817 38.8987 137.004 38.552C137.196 38.2053 137.463 37.9387 137.804 37.752C138.145 37.5653 138.537 37.472 138.98 37.472C139.412 37.472 139.796 37.5627 140.132 37.744C140.468 37.9253 140.729 38.184 140.916 38.52C141.108 38.856 141.204 39.248 141.204 39.696ZM139.804 39.336C139.804 39.1013 139.724 38.9147 139.564 38.776C139.404 38.6373 139.204 38.568 138.964 38.568C138.735 38.568 138.54 38.6347 138.38 38.768C138.225 38.9013 138.129 39.0907 138.092 39.336H139.804ZM144.654 42L143.294 40.128V42H141.926V36.08H143.294V39.352L144.646 37.536H146.334L144.478 39.776L146.35 42H144.654ZM148.903 42.064C148.466 42.064 148.071 41.9707 147.719 41.784C147.372 41.5973 147.098 41.3307 146.895 40.984C146.698 40.6373 146.599 40.232 146.599 39.768C146.599 39.3093 146.7 38.9067 146.903 38.56C147.106 38.208 147.383 37.9387 147.735 37.752C148.087 37.5653 148.482 37.472 148.919 37.472C149.356 37.472 149.751 37.5653 150.103 37.752C150.455 37.9387 150.732 38.208 150.935 38.56C151.138 38.9067 151.239 39.3093 151.239 39.768C151.239 40.2267 151.135 40.632 150.927 40.984C150.724 41.3307 150.444 41.5973 150.087 41.784C149.735 41.9707 149.34 42.064 148.903 42.064ZM148.903 40.88C149.164 40.88 149.386 40.784 149.567 40.592C149.754 40.4 149.847 40.1253 149.847 39.768C149.847 39.4107 149.756 39.136 149.575 38.944C149.399 38.752 149.18 38.656 148.919 38.656C148.652 38.656 148.431 38.752 148.255 38.944C148.079 39.1307 147.991 39.4053 147.991 39.768C147.991 40.1253 148.076 40.4 148.247 40.592C148.423 40.784 148.642 40.88 148.903 40.88ZM153.333 38.28C153.493 38.0347 153.693 37.8427 153.933 37.704C154.173 37.56 154.439 37.488 154.733 37.488V38.936H154.357C154.015 38.936 153.759 39.0107 153.589 39.16C153.418 39.304 153.333 39.56 153.333 39.928V42H151.965V37.536H153.333V38.28ZM155.115 39.76C155.115 39.3013 155.2 38.8987 155.371 38.552C155.547 38.2053 155.784 37.9387 156.083 37.752C156.381 37.5653 156.715 37.472 157.083 37.472C157.397 37.472 157.672 37.536 157.907 37.664C158.147 37.792 158.331 37.96 158.459 38.168V37.536H159.827V42H158.459V41.368C158.325 41.576 158.139 41.744 157.899 41.872C157.664 42 157.389 42.064 157.075 42.064C156.712 42.064 156.381 41.9707 156.083 41.784C155.784 41.592 155.547 41.3227 155.371 40.976C155.2 40.624 155.115 40.2187 155.115 39.76ZM158.459 39.768C158.459 39.4267 158.363 39.1573 158.171 38.96C157.984 38.7627 157.755 38.664 157.483 38.664C157.211 38.664 156.979 38.7627 156.787 38.96C156.6 39.152 156.507 39.4187 156.507 39.76C156.507 40.1013 156.6 40.3733 156.787 40.576C156.979 40.7733 157.211 40.872 157.483 40.872C157.755 40.872 157.984 40.7733 158.171 40.576C158.363 40.3787 158.459 40.1093 158.459 39.768ZM162.632 42.064C162.243 42.064 161.896 41.9973 161.592 41.864C161.288 41.7307 161.048 41.5493 160.872 41.32C160.696 41.0853 160.598 40.824 160.576 40.536H161.928C161.944 40.6907 162.016 40.816 162.144 40.912C162.272 41.008 162.43 41.056 162.616 41.056C162.787 41.056 162.918 41.024 163.008 40.96C163.104 40.8907 163.152 40.8027 163.152 40.696C163.152 40.568 163.086 40.4747 162.952 40.416C162.819 40.352 162.603 40.2827 162.304 40.208C161.984 40.1333 161.718 40.056 161.504 39.976C161.291 39.8907 161.107 39.76 160.952 39.584C160.798 39.4027 160.72 39.16 160.72 38.856C160.72 38.6 160.79 38.368 160.928 38.16C161.072 37.9467 161.28 37.7787 161.552 37.656C161.83 37.5333 162.158 37.472 162.536 37.472C163.096 37.472 163.536 37.6107 163.856 37.888C164.182 38.1653 164.368 38.5333 164.416 38.992H163.152C163.131 38.8373 163.062 38.7147 162.944 38.624C162.832 38.5333 162.683 38.488 162.496 38.488C162.336 38.488 162.214 38.52 162.128 38.584C162.043 38.6427 162 38.7253 162 38.832C162 38.96 162.067 39.056 162.2 39.12C162.339 39.184 162.552 39.248 162.84 39.312C163.171 39.3973 163.44 39.4827 163.648 39.568C163.856 39.648 164.038 39.7813 164.192 39.968C164.352 40.1493 164.435 40.3947 164.44 40.704C164.44 40.9653 164.366 41.2 164.216 41.408C164.072 41.6107 163.862 41.7707 163.584 41.888C163.312 42.0053 162.995 42.064 162.632 42.064ZM165.965 37.072C165.725 37.072 165.528 37.0027 165.373 36.864C165.224 36.72 165.149 36.544 165.149 36.336C165.149 36.1227 165.224 35.9467 165.373 35.808C165.528 35.664 165.725 35.592 165.965 35.592C166.2 35.592 166.392 35.664 166.541 35.808C166.696 35.9467 166.773 36.1227 166.773 36.336C166.773 36.544 166.696 36.72 166.541 36.864C166.392 37.0027 166.2 37.072 165.965 37.072ZM166.645 37.536V42H165.277V37.536H166.645ZM172.828 41.008H170.732L170.396 42H168.964L170.996 36.384H172.58L174.612 42H173.164L172.828 41.008ZM172.476 39.952L171.78 37.896L171.092 39.952H172.476ZM174.958 39.768C174.958 39.304 175.052 38.8987 175.238 38.552C175.43 38.2053 175.694 37.9387 176.03 37.752C176.372 37.5653 176.761 37.472 177.198 37.472C177.758 37.472 178.225 37.6187 178.598 37.912C178.977 38.2053 179.225 38.6187 179.342 39.152H177.886C177.764 38.8107 177.526 38.64 177.174 38.64C176.924 38.64 176.724 38.7387 176.574 38.936C176.425 39.128 176.35 39.4053 176.35 39.768C176.35 40.1307 176.425 40.4107 176.574 40.608C176.724 40.8 176.924 40.896 177.174 40.896C177.526 40.896 177.764 40.7253 177.886 40.384H179.342C179.225 40.9067 178.977 41.3173 178.598 41.616C178.22 41.9147 177.753 42.064 177.198 42.064C176.761 42.064 176.372 41.9707 176.03 41.784C175.694 41.5973 175.43 41.3307 175.238 40.984C175.052 40.6373 174.958 40.232 174.958 39.768ZM179.802 39.76C179.802 39.3013 179.887 38.8987 180.058 38.552C180.234 38.2053 180.471 37.9387 180.77 37.752C181.069 37.5653 181.402 37.472 181.77 37.472C182.085 37.472 182.359 37.536 182.594 37.664C182.834 37.792 183.018 37.96 183.146 38.168V37.536H184.514V42H183.146V41.368C183.013 41.576 182.826 41.744 182.586 41.872C182.351 42 182.077 42.064 181.762 42.064C181.399 42.064 181.069 41.9707 180.77 41.784C180.471 41.592 180.234 41.3227 180.058 40.976C179.887 40.624 179.802 40.2187 179.802 39.76ZM183.146 39.768C183.146 39.4267 183.05 39.1573 182.858 38.96C182.671 38.7627 182.442 38.664 182.17 38.664C181.898 38.664 181.666 38.7627 181.474 38.96C181.287 39.152 181.194 39.4187 181.194 39.76C181.194 40.1013 181.287 40.3733 181.474 40.576C181.666 40.7733 181.898 40.872 182.17 40.872C182.442 40.872 182.671 40.7733 182.858 40.576C183.05 40.3787 183.146 40.1093 183.146 39.768ZM186.872 38.28C187.032 38.0347 187.232 37.8427 187.472 37.704C187.712 37.56 187.978 37.488 188.272 37.488V38.936H187.896C187.554 38.936 187.298 39.0107 187.128 39.16C186.957 39.304 186.872 39.56 186.872 39.928V42H185.504V37.536H186.872V38.28ZM188.654 39.76C188.654 39.3013 188.739 38.8987 188.91 38.552C189.086 38.2053 189.323 37.9387 189.622 37.752C189.92 37.5653 190.254 37.472 190.622 37.472C190.936 37.472 191.211 37.536 191.446 37.664C191.686 37.792 191.87 37.96 191.998 38.168V37.536H193.366V42H191.998V41.368C191.864 41.576 191.678 41.744 191.438 41.872C191.203 42 190.928 42.064 190.614 42.064C190.251 42.064 189.92 41.9707 189.622 41.784C189.323 41.592 189.086 41.3227 188.91 40.976C188.739 40.624 188.654 40.2187 188.654 39.76ZM191.998 39.768C191.998 39.4267 191.902 39.1573 191.71 38.96C191.523 38.7627 191.294 38.664 191.022 38.664C190.75 38.664 190.518 38.7627 190.326 38.96C190.139 39.152 190.046 39.4187 190.046 39.76C190.046 40.1013 190.139 40.3733 190.326 40.576C190.518 40.7733 190.75 40.872 191.022 40.872C191.294 40.872 191.523 40.7733 191.71 40.576C191.902 40.3787 191.998 40.1093 191.998 39.768ZM199.491 38.624V39.76H195.971V38.624H199.491ZM204.419 42.056C204.008 42.056 203.64 41.9893 203.315 41.856C202.989 41.7227 202.728 41.5253 202.531 41.264C202.339 41.0027 202.237 40.688 202.227 40.32H203.683C203.704 40.528 203.776 40.688 203.899 40.8C204.021 40.9067 204.181 40.96 204.379 40.96C204.581 40.96 204.741 40.9147 204.859 40.824C204.976 40.728 205.035 40.5973 205.035 40.432C205.035 40.2933 204.987 40.1787 204.891 40.088C204.8 39.9973 204.685 39.9227 204.547 39.864C204.413 39.8053 204.221 39.7387 203.971 39.664C203.608 39.552 203.312 39.44 203.083 39.328C202.853 39.216 202.656 39.0507 202.491 38.832C202.325 38.6133 202.243 38.328 202.243 37.976C202.243 37.4533 202.432 37.0453 202.811 36.752C203.189 36.4533 203.683 36.304 204.291 36.304C204.909 36.304 205.408 36.4533 205.787 36.752C206.165 37.0453 206.368 37.456 206.395 37.984H204.915C204.904 37.8027 204.837 37.6613 204.715 37.56C204.592 37.4533 204.435 37.4 204.243 37.4C204.077 37.4 203.944 37.4453 203.843 37.536C203.741 37.6213 203.691 37.7467 203.691 37.912C203.691 38.0933 203.776 38.2347 203.947 38.336C204.117 38.4373 204.384 38.5467 204.747 38.664C205.109 38.7867 205.403 38.904 205.627 39.016C205.856 39.128 206.053 39.2907 206.219 39.504C206.384 39.7173 206.467 39.992 206.467 40.328C206.467 40.648 206.384 40.9387 206.219 41.2C206.059 41.4613 205.824 41.6693 205.515 41.824C205.205 41.9787 204.84 42.056 204.419 42.056ZM211.516 39.696C211.516 39.824 211.509 39.9573 211.493 40.096H208.397C208.418 40.3733 208.506 40.5867 208.661 40.736C208.821 40.88 209.015 40.952 209.245 40.952C209.586 40.952 209.823 40.808 209.957 40.52H211.413C211.338 40.8133 211.202 41.0773 211.005 41.312C210.813 41.5467 210.57 41.7307 210.277 41.864C209.983 41.9973 209.655 42.064 209.293 42.064C208.855 42.064 208.466 41.9707 208.125 41.784C207.783 41.5973 207.517 41.3307 207.325 40.984C207.133 40.6373 207.037 40.232 207.037 39.768C207.037 39.304 207.13 38.8987 207.317 38.552C207.509 38.2053 207.775 37.9387 208.117 37.752C208.458 37.5653 208.85 37.472 209.293 37.472C209.725 37.472 210.109 37.5627 210.445 37.744C210.781 37.9253 211.042 38.184 211.229 38.52C211.421 38.856 211.516 39.248 211.516 39.696ZM210.117 39.336C210.117 39.1013 210.037 38.9147 209.877 38.776C209.717 38.6373 209.517 38.568 209.277 38.568C209.047 38.568 208.853 38.6347 208.693 38.768C208.538 38.9013 208.442 39.0907 208.405 39.336H210.117ZM217.934 37.488C218.489 37.488 218.929 37.656 219.254 37.992C219.585 38.328 219.75 38.7947 219.75 39.392V42H218.39V39.576C218.39 39.288 218.313 39.0667 218.158 38.912C218.009 38.752 217.801 38.672 217.534 38.672C217.268 38.672 217.057 38.752 216.902 38.912C216.753 39.0667 216.678 39.288 216.678 39.576V42H215.318V39.576C215.318 39.288 215.241 39.0667 215.086 38.912C214.937 38.752 214.729 38.672 214.462 38.672C214.196 38.672 213.985 38.752 213.83 38.912C213.681 39.0667 213.606 39.288 213.606 39.576V42H212.238V37.536H213.606V38.096C213.745 37.9093 213.926 37.7627 214.15 37.656C214.374 37.544 214.628 37.488 214.91 37.488C215.246 37.488 215.545 37.56 215.806 37.704C216.073 37.848 216.281 38.0533 216.43 38.32C216.585 38.0747 216.796 37.8747 217.062 37.72C217.329 37.5653 217.62 37.488 217.934 37.488ZM225.115 37.536V42H223.747V41.392C223.608 41.5893 223.419 41.7493 223.179 41.872C222.944 41.9893 222.683 42.048 222.395 42.048C222.054 42.048 221.752 41.9733 221.491 41.824C221.23 41.6693 221.027 41.448 220.883 41.16C220.739 40.872 220.667 40.5333 220.667 40.144V37.536H222.027V39.96C222.027 40.2587 222.104 40.4907 222.259 40.656C222.414 40.8213 222.622 40.904 222.883 40.904C223.15 40.904 223.36 40.8213 223.515 40.656C223.67 40.4907 223.747 40.2587 223.747 39.96V37.536H225.115ZM225.826 39.76C225.826 39.3013 225.911 38.8987 226.082 38.552C226.258 38.2053 226.495 37.9387 226.794 37.752C227.092 37.5653 227.426 37.472 227.794 37.472C228.108 37.472 228.383 37.536 228.618 37.664C228.858 37.792 229.042 37.96 229.17 38.168V37.536H230.538V42H229.17V41.368C229.036 41.576 228.85 41.744 228.61 41.872C228.375 42 228.1 42.064 227.786 42.064C227.423 42.064 227.092 41.9707 226.794 41.784C226.495 41.592 226.258 41.3227 226.082 40.976C225.911 40.624 225.826 40.2187 225.826 39.76ZM229.17 39.768C229.17 39.4267 229.074 39.1573 228.882 38.96C228.695 38.7627 228.466 38.664 228.194 38.664C227.922 38.664 227.69 38.7627 227.498 38.96C227.311 39.152 227.218 39.4187 227.218 39.76C227.218 40.1013 227.311 40.3733 227.498 40.576C227.69 40.7733 227.922 40.872 228.194 40.872C228.466 40.872 228.695 40.7733 228.882 40.576C229.074 40.3787 229.17 40.1093 229.17 39.768ZM236.719 41.008H234.623L234.287 42H232.855L234.887 36.384H236.471L238.503 42H237.055L236.719 41.008ZM236.367 39.952L235.671 37.896L234.983 39.952H236.367ZM238.849 39.76C238.849 39.3013 238.934 38.8987 239.105 38.552C239.281 38.2053 239.518 37.9387 239.817 37.752C240.116 37.5653 240.449 37.472 240.817 37.472C241.11 37.472 241.377 37.5333 241.617 37.656C241.862 37.7787 242.054 37.944 242.193 38.152V36.08H243.561V42H242.193V41.36C242.065 41.5733 241.881 41.744 241.641 41.872C241.406 42 241.132 42.064 240.817 42.064C240.449 42.064 240.116 41.9707 239.817 41.784C239.518 41.592 239.281 41.3227 239.105 40.976C238.934 40.624 238.849 40.2187 238.849 39.76ZM242.193 39.768C242.193 39.4267 242.097 39.1573 241.905 38.96C241.718 38.7627 241.489 38.664 241.217 38.664C240.945 38.664 240.713 38.7627 240.521 38.96C240.334 39.152 240.241 39.4187 240.241 39.76C240.241 40.1013 240.334 40.3733 240.521 40.576C240.713 40.7733 240.945 40.872 241.217 40.872C241.489 40.872 241.718 40.7733 241.905 40.576C242.097 40.3787 242.193 40.1093 242.193 39.768ZM244.279 39.76C244.279 39.3013 244.364 38.8987 244.535 38.552C244.711 38.2053 244.948 37.9387 245.247 37.752C245.545 37.5653 245.879 37.472 246.247 37.472C246.561 37.472 246.836 37.536 247.071 37.664C247.311 37.792 247.495 37.96 247.623 38.168V37.536H248.991V42H247.623V41.368C247.489 41.576 247.303 41.744 247.063 41.872C246.828 42 246.553 42.064 246.239 42.064C245.876 42.064 245.545 41.9707 245.247 41.784C244.948 41.592 244.711 41.3227 244.535 40.976C244.364 40.624 244.279 40.2187 244.279 39.76ZM247.623 39.768C247.623 39.4267 247.527 39.1573 247.335 38.96C247.148 38.7627 246.919 38.664 246.647 38.664C246.375 38.664 246.143 38.7627 245.951 38.96C245.764 39.152 245.671 39.4187 245.671 39.76C245.671 40.1013 245.764 40.3733 245.951 40.576C246.143 40.7733 246.375 40.872 246.647 40.872C246.919 40.872 247.148 40.7733 247.335 40.576C247.527 40.3787 247.623 40.1093 247.623 39.768ZM251.404 39.76C251.404 39.3013 251.489 38.8987 251.66 38.552C251.836 38.2053 252.073 37.9387 252.372 37.752C252.67 37.5653 253.004 37.472 253.372 37.472C253.665 37.472 253.932 37.5333 254.172 37.656C254.417 37.7787 254.609 37.944 254.748 38.152V36.08H256.116V42H254.748V41.36C254.62 41.5733 254.436 41.744 254.196 41.872C253.961 42 253.686 42.064 253.372 42.064C253.004 42.064 252.67 41.9707 252.372 41.784C252.073 41.592 251.836 41.3227 251.66 40.976C251.489 40.624 251.404 40.2187 251.404 39.76ZM254.748 39.768C254.748 39.4267 254.652 39.1573 254.46 38.96C254.273 38.7627 254.044 38.664 253.772 38.664C253.5 38.664 253.268 38.7627 253.076 38.96C252.889 39.152 252.796 39.4187 252.796 39.76C252.796 40.1013 252.889 40.3733 253.076 40.576C253.268 40.7733 253.5 40.872 253.772 40.872C254.044 40.872 254.273 40.7733 254.46 40.576C254.652 40.3787 254.748 40.1093 254.748 39.768ZM257.793 37.072C257.553 37.072 257.356 37.0027 257.201 36.864C257.052 36.72 256.977 36.544 256.977 36.336C256.977 36.1227 257.052 35.9467 257.201 35.808C257.356 35.664 257.553 35.592 257.793 35.592C258.028 35.592 258.22 35.664 258.369 35.808C258.524 35.9467 258.601 36.1227 258.601 36.336C258.601 36.544 258.524 36.72 258.369 36.864C258.22 37.0027 258.028 37.072 257.793 37.072ZM258.473 37.536V42H257.105V37.536H258.473ZM262.976 42.064C262.587 42.064 262.24 41.9973 261.936 41.864C261.632 41.7307 261.392 41.5493 261.216 41.32C261.04 41.0853 260.941 40.824 260.92 40.536H262.272C262.288 40.6907 262.36 40.816 262.488 40.912C262.616 41.008 262.773 41.056 262.96 41.056C263.131 41.056 263.261 41.024 263.352 40.96C263.448 40.8907 263.496 40.8027 263.496 40.696C263.496 40.568 263.429 40.4747 263.296 40.416C263.163 40.352 262.947 40.2827 262.648 40.208C262.328 40.1333 262.061 40.056 261.848 39.976C261.635 39.8907 261.451 39.76 261.296 39.584C261.141 39.4027 261.064 39.16 261.064 38.856C261.064 38.6 261.133 38.368 261.272 38.16C261.416 37.9467 261.624 37.7787 261.896 37.656C262.173 37.5333 262.501 37.472 262.88 37.472C263.44 37.472 263.88 37.6107 264.2 37.888C264.525 38.1653 264.712 38.5333 264.76 38.992H263.496C263.475 38.8373 263.405 38.7147 263.288 38.624C263.176 38.5333 263.027 38.488 262.84 38.488C262.68 38.488 262.557 38.52 262.472 38.584C262.387 38.6427 262.344 38.7253 262.344 38.832C262.344 38.96 262.411 39.056 262.544 39.12C262.683 39.184 262.896 39.248 263.184 39.312C263.515 39.3973 263.784 39.4827 263.992 39.568C264.2 39.648 264.381 39.7813 264.536 39.968C264.696 40.1493 264.779 40.3947 264.784 40.704C264.784 40.9653 264.709 41.2 264.56 41.408C264.416 41.6107 264.205 41.7707 263.928 41.888C263.656 42.0053 263.339 42.064 262.976 42.064ZM266.309 37.072C266.069 37.072 265.872 37.0027 265.717 36.864C265.568 36.72 265.493 36.544 265.493 36.336C265.493 36.1227 265.568 35.9467 265.717 35.808C265.872 35.664 266.069 35.592 266.309 35.592C266.544 35.592 266.736 35.664 266.885 35.808C267.04 35.9467 267.117 36.1227 267.117 36.336C267.117 36.544 267.04 36.72 266.885 36.864C266.736 37.0027 266.544 37.072 266.309 37.072ZM266.989 37.536V42H265.621V37.536H266.989ZM270.7 37.488C271.223 37.488 271.639 37.6587 271.948 38C272.263 38.336 272.42 38.8 272.42 39.392V42H271.06V39.576C271.06 39.2773 270.983 39.0453 270.828 38.88C270.674 38.7147 270.466 38.632 270.204 38.632C269.943 38.632 269.735 38.7147 269.58 38.88C269.426 39.0453 269.348 39.2773 269.348 39.576V42H267.98V37.536H269.348V38.128C269.487 37.9307 269.674 37.776 269.908 37.664C270.143 37.5467 270.407 37.488 270.7 37.488ZM274.059 37.072C273.819 37.072 273.622 37.0027 273.467 36.864C273.318 36.72 273.243 36.544 273.243 36.336C273.243 36.1227 273.318 35.9467 273.467 35.808C273.622 35.664 273.819 35.592 274.059 35.592C274.294 35.592 274.486 35.664 274.635 35.808C274.79 35.9467 274.867 36.1227 274.867 36.336C274.867 36.544 274.79 36.72 274.635 36.864C274.486 37.0027 274.294 37.072 274.059 37.072ZM274.739 37.536V42H273.371V37.536H274.739Z" fill="#132440"/>
</svg>
